<svg xmlns="http://www.w3.org/2000/svg" viewBox="0 0 128 128" role="img" aria-label="Favicon zub">
  <defs>
    <linearGradient id="g" x1="0" y1="0" x2="1" y2="1">
      <stop offset="0%" stop-color="#FFA5B7"/>
      <stop offset="100%" stop-color="#58D0DB"/>
    </linearGradient>
  </defs>
  <rect width="128" height="128" rx="26" fill="#FFF0F3"/>
  <path fill="url(#g)" d="M64 20c-11 0-21 4-27 12-7 9-8 21-4 31 2 5 5 9 8 14 4 7 6 15 7 23 1 8 7 14 15 14s14-6 15-14c1-8 3-16 7-23 3-5 6-9 8-14 4-10 3-22-4-31-6-8-16-12-27-12z"/>
  <circle cx="47" cy="55" r="6" fill="#ffffff" opacity="0.75"/>
</svg>
