<svg fill="none" height="512" viewBox="0 0 24 24" width="512" xmlns="http://www.w3.org/2000/svg"><path clip-rule="evenodd" d="m13 2c0-.55228-.4477-1-1-1s-1 .44772-1 1v2c0 .55228.4477 1 1 1s1-.44772 1-1zm-9.1056.55276c-.24699-.49398-.84766-.6942-1.34164-.44721s-.6942.84766-.44721 1.34164l1 2c.24699.49398.84766.6942 1.34164.44721s.6942-.84766.44721-1.34164zm17.5528-.44721c-.4939-.24699-1.0946-.04677-1.3416.44721l-1 2c-.247.49398-.0468 1.09465.4472 1.34164s1.0947.04677 1.3417-.44721l1-2c.2469-.49398.0467-1.09465-.4473-1.34164zm-19.44723 11.39445c0-1.7896.72323-3.4103 1.89336-4.58572l.01045-.01047.01048-.01046c1.17543-1.17012 2.79611-1.89335 4.58572-1.89335 1.28773 0 2.48962.37532 3.50002 1.02199 1.0104-.64667 2.2122-1.02199 3.5-1.02199 3.5898 0 6.5 2.91015 6.5 6.5 0 .4318-.0423.8547-.1231 1.2645-.2046 1.0366-.5877 2.06-.9355 2.9895-.0783.2091-.1548.4134-.227.6121-.2298.6315-.4254 1.2242-.5535 1.7991.7833.2601 1.5479.5712 2.2863.9404.494.247.6942.8476.4472 1.3416s-.8477.6942-1.3416.4472c-2.8076-1.4037-6.1421-1.8944-9.5528-1.8944-3.41078 0-6.74528.4907-9.55281 1.8944-.49398.247-1.09465.0468-1.34164-.4472-.246992-.494-.04677-1.0946.44721-1.3416.73843-.3692 1.50299-.6803 2.28631-.9404-.12813-.5749-.32374-1.1676-.55347-1.7991-.07232-.1988-.14885-.4033-.22715-.6125-.3479-.9295-.73079-1.9525-.93536-2.9891-.08087-.4098-.12312-.8327-.12312-1.2645zm3.31803-3.182c-.84392.8439-1.31802 1.9885-1.31803 3.182 0 .3011.02944.5943.08528.8773.1698.8604.48025 1.6923.82313 2.6111.08416.2255.17027.4563.25673.694.22319.6135.44475 1.2655.60349 1.9491 2.03516-.459 4.15144-.6315 6.2314-.6315 2.0799 0 4.1962.1725 6.2314.6315.1587-.6836.3803-1.3356.6034-1.9491.0864-.2375.1725-.4682.2566-.6936l.0002-.0003c.3428-.9189.6533-1.7508.8231-2.6112.0558-.283.0853-.5762.0853-.8773 0-2.4853-2.0147-4.5-4.5-4.5-.6912 0-1.345.1553-1.9294.43316.5459.68064.9469 1.46154 1.183 2.29404.1506.5314-.158 1.0842-.6894 1.2349-.5313.1506-1.0842-.158-1.2348-.6893-.2076-.7325-.5996-1.407-1.1474-1.9548-.844-.84389-1.98855-1.318-3.18202-1.318-1.19348 0-2.33807.47411-3.18198 1.318z" fill="rgb(0,0,0)" fill-rule="evenodd"/></svg>