<svg id="Capa_1" enable-background="new 0 0 502.331 502.331" height="512" viewBox="0 0 502.331 502.331" width="512" xmlns="http://www.w3.org/2000/svg"><g><g><g><path d="m487.156 188.413c-10.128-7.314-24.756-8.44-37.134-4.501-3.376-30.382-15.191-58.514-37.134-81.02-26.444-28.132-63.578-45.011-102.4-47.262-22.505-1.688-22.505 34.321 0 35.446 27.569 1.125 54.576 12.941 74.831 32.07 23.068 21.38 32.07 50.075 32.633 81.02.563 58.514-26.444 126.593-80.457 154.725-50.075 25.881-116.466 23.631-168.229 2.813-54.013-21.943-91.71-78.769-92.835-137.284-1.125-63.015 38.822-112.527 84.958-150.224.563 5.626 1.688 11.815 3.376 17.442 12.941 39.385 54.576 67.516 93.96 44.448 2.251-1.688 1.125-5.626-2.251-5.064-37.697 11.815-81.582-25.319-74.268-65.829 3.376-18.004 28.695-28.132 45.574-29.257 30.382-2.251 27.007 52.888 1.688 49.512 10.69 1.688 19.692-13.503 7.877-19.13-15.191-7.314-33.196 3.938-30.382 21.943 2.813 16.879 23.068 23.631 37.697 17.442 38.822-16.879 36.009-88.334-9.565-92.273-19.692-1.688-44.448 8.44-59.077 21.38-8.44 7.314-12.941 16.316-14.629 26.444-12.941 1.688-23.631 5.064-34.884 12.941-14.066 9.565-25.881 22.505-36.571 36.009-14.066 18.004-24.756 38.822-32.07 60.765-5.626-2.251-11.815-2.251-17.442-1.125-21.38 4.501-29.257 24.193-36.571 41.635-6.189 19.13-6.189 39.947 9.565 56.264 10.69 10.69 29.257 15.754 44.448 11.815 10.69 34.884 32.07 66.391 62.453 89.459-20.255 2.251-33.196 15.191-43.886 33.758s-27.569 51.763-20.255 73.143c3.938 11.815 20.818 15.754 27.569 3.376 8.44-15.754 6.752-37.134 12.941-54.013 5.064-15.191 16.879-37.697 32.633-44.448 1.688-.563 2.813-2.251 3.938-3.376 57.952 37.134 142.91 41.635 206.488 15.754 3.376-1.125 6.189-2.813 9.565-4.501 12.378 11.253 26.444 18.567 34.884 34.884 4.501 7.877 7.314 16.879 9.002 25.881 2.251 10.127.563 19.692 3.938 29.257 5.064 14.629 23.068 12.941 28.132 0 9.565-22.505-4.501-56.264-18.004-74.831-8.44-11.815-20.818-23.631-34.884-29.82 33.758-24.756 56.826-61.89 68.642-102.4 8.44 2.251 18.004 1.125 25.881-.563 17.442-3.938 27.569-19.13 32.633-35.446 5.626-16.314 3.376-36.006-12.378-47.259zm-454.048 59.077c-9.565-9.565-3.376-21.38 0-32.07 2.813-8.44 5.064-18.567 14.066-23.068 1.125-.563 3.376-1.125 6.189-1.688-.563 2.813-1.125 6.189-1.688 9.002-2.813 17.442-2.813 34.884-.563 51.763-6.189 1.688-12.941 1.688-18.004-3.939zm445.046-14.628c-6.752 18.567-16.879 17.442-30.382 12.941 1.688-10.127 2.813-20.255 3.376-30.382 0-4.501.563-9.565 0-14.066 7.877-.563 15.191-1.125 21.38 2.251 10.689 6.188 9.002 19.691 5.626 29.256z"/><path d="m167.578 219.358c-.563-7.877-6.752-15.191-15.191-15.191-3.938 0-7.877 1.688-10.69 4.501s-4.501 6.752-4.501 10.69c.563 7.877 6.752 15.191 15.191 15.191 3.938 0 7.877-1.688 10.69-4.501s4.501-6.751 4.501-10.69z"/><path d="m357.749 219.358c-.563-7.877-6.752-15.191-15.191-15.191-3.938 0-7.877 1.688-10.69 4.501s-4.501 6.752-4.501 10.69c.563 7.877 6.752 15.191 15.191 15.191 3.938 0 7.877-1.688 10.69-4.501s5.064-6.751 4.501-10.69z"/><path d="m165.89 311.631c11.253 21.38 35.446 34.884 59.077 38.259 46.136 6.752 109.714-28.132 109.714-79.332 0-8.44-7.314-11.253-12.941-9.565-.563 0-1.125-.563-1.125-.563-49.512-7.877-110.277-29.257-156.976 0-2.251 1.125-2.251 4.501-.563 6.189-7.314 12.942-3.938 32.071 2.814 45.012zm65.829 22.505c-18.567-1.688-38.822-10.127-49.512-25.881-10.127-14.066-7.877-27.007-7.877-42.198 7.877-1.125 16.316-1.688 24.193-2.251-4.501 20.255.563 44.448 25.881 43.886 6.752 0 13.503-2.813 19.13-6.752 2.813 4.501 7.877 7.314 16.316 8.44 9.002 1.125 18.567-1.125 25.319-7.314 7.877-6.752 8.44-16.316 12.941-24.756 5.064 1.688 10.69 3.376 15.754 5.064.563 0 1.125.563 1.688.563 1.687 36.008-54.576 54.013-83.833 51.199zm29.257-65.266c5.626 1.125 11.253 2.251 16.316 3.376-1.688 7.877-5.626 19.13-14.066 15.191-5.064-2.251-3.938-7.877-2.813-14.066.563-1.125.563-2.25.563-4.501zm-3.939 13.504c0-1.125 0-.563 0 0zm-16.316-16.879c0 1.125-.563 2.251-.563 3.938 0 0 0-.563.563-.563v.563.563c0 .563-.563.563-.563 1.125-2.251 7.877-3.376 14.066-11.815 16.316-14.629 4.501-13.503-13.503-11.253-23.068 0-.563 0-.563 0-1.125 7.314.563 15.191.563 23.631 2.251z"/></g></g></g></svg>