<svg id="Capa_1" enable-background="new 0 0 503.182 503.182" height="512" viewBox="0 0 503.182 503.182" width="512" xmlns="http://www.w3.org/2000/svg"><g><g><path d="m502.998 242.289c-2.251-60.765-28.132-117.029-68.642-159.789 5.064-5.064 10.128-10.127 15.191-15.754 12.378-12.378-6.752-31.508-19.13-19.13-5.064 5.064-10.69 10.69-15.754 15.754-28.132-24.193-60.765-42.198-96.774-52.325-52.324-14.629-109.151-12.378-159.788 7.877-45.574 18.567-81.582 50.637-110.84 89.459-17.442 22.505-29.82 44.448-36.571 72.58s-10.69 57.389-10.69 86.084c1.125 58.514 24.756 110.84 56.826 159.226l.563.563c-3.938 5.064-7.877 10.128-10.69 15.754-3.938 6.752 3.938 14.066 10.127 10.127 9.565-5.064 18.004-12.941 26.444-21.38 30.945 32.633 79.332 54.576 122.092 64.141 50.075 11.253 97.336 6.752 144.035-12.378 20.255-8.44 41.073-16.879 57.952-30.382 20.818-16.316 36.009-38.259 50.075-59.64 29.257-44.449 47.824-96.774 45.574-150.787zm-466.989 48.387c-5.626-40.51-2.251-92.835 15.754-130.532 16.879-36.009 50.637-71.455 83.833-93.398 38.259-24.756 83.833-35.446 129.407-32.07 47.262 3.376 91.147 22.505 125.468 52.325-16.879 16.879-33.196 33.758-50.075 50.075-15.754-15.754-35.446-27.569-56.826-33.758-49.512-14.066-108.026 2.251-145.16 39.385-37.134 36.571-47.824 96.211-18.567 141.222 10.127 15.754 35.446.563 24.756-14.629-39.947-56.264 6.189-120.404 63.578-138.409 38.259-11.815 87.209-3.938 115.341 24.756-7.314 7.314-14.629 14.629-21.943 21.943-9.565-13.503-23.631-24.193-41.073-27.007-42.198-6.752-84.396 20.255-99.024 59.64-11.815 30.945-8.44 70.892 11.815 97.899-27.007 27.569-54.013 55.701-81.02 83.27-2.813 2.813-5.626 5.626-8.44 8.44-23.068-33.196-41.635-68.643-47.824-109.152zm308.888-91.71c9.002 59.64-47.824 114.215-105.776 115.903-11.815 0-22.505-2.251-30.945-6.752 10.69-10.69 21.38-20.818 31.508-31.508 25.881 8.44 57.952-1.688 69.204-29.82 5.626-13.503 6.189-28.132 3.376-42.198 8.44-8.44 17.442-17.442 25.881-25.881 3.939 5.627 5.626 12.379 6.752 20.256zm-128.282-19.13c25.881-12.941 56.264-8.44 68.079 15.191-16.316 16.316-32.07 32.633-48.387 48.949-2.251-2.813-5.064-6.752-5.626-10.127-.563-2.813 2.251-15.754 3.376-12.941 6.752 13.503 23.631 2.813 21.943-9.002-2.251-18.567-25.881-22.505-39.385-12.941-18.004 12.378-16.316 37.697-6.189 54.013 2.251 3.938 5.064 6.752 7.877 10.127-9.565 9.565-18.567 19.13-28.132 28.694-23.63-33.756-15.191-91.708 26.444-111.963zm72.581 47.824c-2.251 13.503-10.69 24.193-25.881 25.881 8.439-9.002 17.441-17.441 25.881-25.881zm159.789 117.591c-19.13 40.51-45.574 79.332-86.084 99.587-19.13 9.565-39.385 19.692-60.202 25.319-23.631 6.752-50.637 6.189-74.831 3.376-27.007-3.376-53.451-11.815-78.207-23.068-19.13-9.002-36.571-20.255-55.138-30.382 1.688-1.688 2.813-2.813 4.501-4.501 30.945-30.382 61.89-60.202 92.835-91.147 2.251 1.688 5.064 3.376 7.877 4.501 14.629 7.314 30.945 9.565 47.824 8.44 0 18.567 5.626 39.385 9.565 56.264 3.938 16.879 8.44 48.949 30.382 53.451 16.879 3.376 41.635-13.503 42.198-31.508.563-11.253-6.189-22.505-9.002-33.196-2.813-11.253-5.626-21.943-9.002-32.633-5.064-14.629-28.132-8.44-23.068 6.189 3.938 10.69 6.189 21.943 8.44 33.196 1.125 5.064 2.813 9.565 3.938 14.629 2.251 10.128 0 14.629-7.877 17.442-9.002-9.565-12.378-35.446-15.191-47.262-2.813-12.941-4.501-27.007-7.877-39.947 19.13-5.064 37.134-14.066 51.763-25.319 34.883-27.569 56.264-73.143 48.387-117.591-2.251-11.815-6.189-22.505-11.815-32.633 14.629-14.629 29.257-29.257 43.886-43.886 3.376-3.376 6.189-6.189 9.565-9.565 26.444 28.695 45.574 64.141 54.013 103.525 9.001 46.135 2.812 95.084-16.88 136.719z"/></g></g></svg>