<svg id="Capa_1" enable-background="new 0 0 509.857 509.857" height="512" viewBox="0 0 509.857 509.857" width="512" xmlns="http://www.w3.org/2000/svg"><g><g><g><circle cx="64.715" cy="162.254" r="14.629"/><circle cx="438.307" cy="309.102" r="14.629"/><path d="m171.054 46.35c3.938-6.752 2.251-14.629 2.251-21.943 0-6.752.563-15.191-3.376-20.818-3.376-5.064-9.565-4.501-12.941 0-3.938 5.626-3.938 14.066-4.501 20.818-.563 7.877-2.251 15.191 1.688 21.943 3.376 6.752 13.503 6.189 16.879 0z"/><path d="m156.988 76.17c-3.938 5.626-3.938 14.066-4.501 20.818-.563 7.877-2.251 15.191 1.688 21.943 3.376 6.752 13.503 6.189 16.879 0 3.938-6.752 2.251-14.629 2.251-21.943 0-6.752.563-15.191-3.376-20.818-3.376-5.064-9.565-4.501-12.941 0z"/><path d="m111.977 70.544c6.752 1.688 12.941 2.813 19.692 2.813 7.877.563 14.629.563 19.13-6.752 2.813-3.938 1.125-9.002-1.688-12.941-5.064-6.189-11.815-4.501-19.13-3.938-6.189.563-12.378 1.688-18.567 2.813-8.439 1.688-7.877 15.754.563 18.005z"/><path d="m176.68 70.544c6.752 1.688 12.941 2.813 19.692 2.813 7.877.563 14.629.563 19.13-6.752 2.813-3.938 1.125-9.002-1.688-12.941-5.064-6.189-11.815-4.501-19.13-3.938-6.189.563-12.378 1.688-18.567 2.813-8.439 1.688-7.876 15.754.563 18.005z"/><path d="m379.792 387.309c3.376-5.626 2.251-12.378 1.688-18.567 0-5.626.563-12.378-2.813-17.442-2.813-3.938-7.877-3.938-11.253 0-3.376 4.501-3.376 11.815-3.938 17.442-.563 6.189-1.688 12.378 1.125 18.567 3.939 5.626 12.378 5.063 15.191 0z"/><path d="m378.667 412.065c-2.813-3.938-7.877-3.938-11.253 0-3.376 4.501-3.376 11.815-3.938 17.442-.563 6.189-1.688 12.378 1.125 18.567 2.813 5.626 11.253 5.064 14.629 0 3.376-5.626 2.251-12.378 1.688-18.567.562-5.627 1.125-12.379-2.251-17.442z"/><path d="m361.788 393.498c-4.501-5.064-10.127-3.938-15.754-3.376-5.064.563-10.69 1.125-15.754 2.251-7.877 1.688-7.314 13.503 0 15.191 5.626 1.688 10.69 2.251 16.879 2.251 6.752 0 12.378.563 16.316-5.626 1.689-3.94.564-7.878-1.687-10.691z"/><path d="m400.047 390.122c-5.064.563-10.69 1.125-15.754 2.251-7.877 1.688-7.314 13.503 0 15.191 5.626 1.688 10.69 2.251 16.879 2.251 6.752 0 12.378.563 16.316-5.626 2.251-3.376 1.125-7.877-1.125-10.69-4.5-5.628-10.127-3.94-16.316-3.377z"/><path d="m457.436 50.289c-9.565-15.754-34.321-1.125-24.193 14.066 10.69 16.316 37.697 45.011 24.193 63.578-3.938 5.626-9.565 10.127-14.629 15.191-24.756 25.881-49.512 51.763-73.706 78.207-34.321 36.571-67.516 74.268-102.4 109.714-31.508 31.508-64.141 60.202-97.336 89.459-14.066 12.378-28.132 23.631-43.886 33.758-12.378 7.877-25.319 13.503-38.822 18.004-7.314 2.251-14.629 3.938-21.943 5.626 6.189-5.626 12.941-11.815 19.13-17.442 17.442-16.316 34.884-33.758 52.325-50.637 36.009-35.446 71.455-71.455 105.776-108.026 32.07-33.758 77.081-77.081 43.886-125.468-4.501-6.752-9.565-12.378-15.191-18.004-3.376-3.376-18.567-15.754-18.004-20.818.563-16.879 24.756 11.253 26.444 14.066 5.064 7.314 9.565 14.629 15.754 21.38 9.565 11.253 23.631 20.818 38.822 21.38 18.004.563 33.196-11.815 47.262-20.818 26.444-17.442 52.325-35.446 45.574-71.455-3.376-17.442-13.503-30.945-23.631-45.011-5.064-7.314-16.316-24.756-3.376-30.382 7.877-3.376 17.442 2.813 22.505 7.877 7.314 6.752 19.13-2.251 14.066-10.69-11.815-19.13-41.073-29.82-57.952-9.565-8.44 10.127-9.565 19.692-7.314 29.257-9.565 5.626-19.13 13.503-27.569 19.692-11.253 7.877-27.569 15.754-37.134 26.444-4.501 5.064 0 14.629 6.752 11.815 13.503-5.064 26.444-16.879 38.259-24.756 7.877-5.626 18.004-10.69 26.444-16.879 7.877 14.629 20.255 28.695 24.193 41.635 7.314 22.506-5.626 34.321-23.068 46.136-19.13 12.941-41.635 34.884-63.015 13.503-19.692-19.692-35.446-65.829-72.58-52.325-13.503 5.064-21.38 18.004-19.13 32.07 2.813 15.754 16.316 27.569 26.444 39.385 13.503 15.754 24.193 30.945 13.503 51.2-6.189 11.815-15.754 21.943-24.756 31.508-34.884 38.822-72.018 75.956-109.152 113.09-19.13 19.13-38.822 38.259-58.514 57.389-14.066 12.941-29.82 24.756-42.76 38.822-7.314 7.877-12.378 19.13-5.626 28.694 8.44 12.941 28.695 8.44 41.635 6.752 32.633-5.064 63.015-19.13 88.897-39.947 32.633-26.444 59.077-59.077 88.334-88.897 38.822-40.51 81.02-78.207 120.967-118.154 33.758-33.196 66.954-66.391 100.149-100.149 6.752-6.752 14.629-14.066 20.818-21.943 19.129-28.13-11.816-64.139-26.445-88.332z"/><path d="m287.52 109.366c.563.563 1.688.563 2.251 1.125 2.251.563 5.626-.563 6.752-2.813 1.125-2.251 1.125-5.064-1.125-6.752l-.563-.563c-2.813-2.251-6.752-2.251-9.002.563-2.252 2.251-1.689 6.752 1.687 8.44z"/><path d="m135.608 263.528c18.004 1.125 34.884-10.127 38.259-28.132 2.813-18.567-6.752-35.446-24.756-41.073-12.378-3.938-14.629 18.004-2.251 16.879 11.253-1.125 15.191 13.503 12.941 22.505-2.813 11.253-14.066 15.754-24.756 14.629-23.068-2.813-26.444-37.134-2.813-42.198 5.064-1.125 3.376-7.877-1.125-8.44-18.004-1.125-32.07 15.191-30.382 33.196 2.812 18.006 17.441 31.509 34.883 32.634z"/></g></g></g></svg>