<svg id="Capa_1" enable-background="new 0 0 505.302 505.302" height="512" viewBox="0 0 505.302 505.302" width="512" xmlns="http://www.w3.org/2000/svg"><g><g><g><path d="m217.393 137.586c24.756-16.316 31.508-52.888 13.503-76.519-12.941-16.879-37.697-24.756-56.264-16.879-1.688-1.125-3.938-1.688-6.752-1.688-35.446-1.688-51.2 43.886-39.385 72.018 14.63 34.883 59.078 42.76 88.898 23.068zm-52.888-66.954c7.877 1.688 13.503-2.251 15.754-7.314 8.44-.563 17.442 1.125 24.193 5.064 12.941 8.44 16.316 26.444 9.002 39.385-9.002 16.879-36.009 22.506-52.325 12.941-8.44-5.064-14.066-14.066-14.629-23.631.001-7.878 5.627-29.258 18.005-26.445z"/><path d="m394.624 269.806c39.385-3.938 77.644-17.442 106.338-45.011 6.752-6.752 5.626-20.255-3.376-24.756-30.945-16.316-65.829-25.881-100.712-29.257-14.066-64.141-33.758-131.095-93.96-167.103-12.941-7.877-24.756 11.815-12.941 19.692-19.692 34.321-29.257 71.455-30.945 111.402-1.688 36.571 1.688 81.02 29.257 108.589 1.688 1.688 3.938 3.376 5.626 5.064 13.503 15.191 28.694 28.695 43.323 41.635 12.378 11.253 25.881 20.818 39.947 29.82-19.13 13.503-40.51 23.631-59.077 37.697-19.13 14.066-37.134 29.82-55.138 45.574-6.752-15.754-13.503-31.508-20.818-47.262-9.565-20.818-18.567-44.448-31.508-63.578-9.002-12.941-23.631-19.692-37.697-11.815-16.879 9.002-23.631 38.822-30.945 55.138-2.251 4.501-11.253 12.378-7.314 0 6.752-23.631 15.754-49.512 21.38-73.705 9.565-41.073 29.257-109.152 85.521-95.086 9.565 2.251 17.442-12.378 7.314-16.879-43.886-19.692-84.396 15.754-101.275 54.576-10.69 24.756-16.316 50.637-22.505 77.081-2.251 9.565-4.501 18.567-7.314 28.132-14.066-6.752-28.132-6.752-41.073 3.376-6.752 5.064-11.253 11.815-14.629 19.13-32.07-19.13-74.831 24.756-58.514 61.327 5.064 11.253 13.503 20.255 21.38 28.694 10.69 11.815 15.754 24.193 23.068 38.259 9.565 19.692 31.508 39.947 55.701 36.009 24.756-3.938 15.191-30.945 7.877-46.136-2.251-5.064-7.314-11.815-5.064-18.004 5.064-11.253 18.004-1.125 22.505 5.064 5.626 8.44 7.877 20.255 18.004 24.756 20.818 10.127 32.633-18.004 32.07-34.321-1.125-23.068-20.818-43.886-21.943-66.391 5.626-9.002 10.127-19.692 13.503-28.695 2.251-6.189 8.44-31.508 16.879-29.82 3.938 1.125 9.565 17.442 10.69 20.255 2.813 5.626 5.626 11.815 8.44 18.004 13.503 28.694 25.881 57.952 37.697 87.209 3.938 9.565 14.629 12.941 22.505 6.189 5.626-5.064 11.815-10.128 17.442-15.191 3.938 6.752 7.877 13.503 11.815 19.692 10.69 15.191 25.319 25.881 40.51 36.009 21.38 14.066 69.204 46.699 88.897 14.629 2.251-3.376 1.688-7.314 0-10.69-11.815-21.38-34.321-25.881-52.888-39.947-14.629-11.253-22.505-27.007-29.82-43.323 20.255 19.13 44.448 34.321 70.33 45.011 18.004 7.877 73.705 30.945 83.27 0 4.501-14.629-7.877-25.319-19.13-30.945-9.002-4.501-18.567-7.877-28.132-11.815-12.378-5.064-30.945-9.565-40.51-19.13-9.565-9.002-12.941-23.068-18.567-34.884 7.314-4.501 14.066-9.565 20.818-15.754s4.501-17.442-2.813-21.943c-18.004-10.69-36.009-21.943-51.763-36.009 13.508 1.125 26.448.562 38.264-.563zm-241.934 164.852c-7.877-14.629-17.442-28.132-35.446-29.82-14.629-1.688-28.132 6.189-33.196 20.255-5.064 14.629.563 32.633 9.565 45.011 0 .563.563 1.688-1.125 1.125-6.189-1.688-12.378-5.626-16.316-10.69-7.314-9.002-9.565-21.38-15.754-30.945-9.565-16.316-28.132-25.881-37.134-42.198-5.626-11.253-3.938-25.319 6.189-33.758 7.877-6.189 16.879-6.752 26.444-5.064-1.125 2.813-2.813 5.626-5.064 6.752-11.815 7.314-1.125 26.444 10.69 18.567 9.565-6.189 12.941-16.316 16.879-26.444 2.813-7.877 5.626-15.754 12.941-20.818 6.189-3.938 13.503-3.376 20.818-1.688-4.501 10.69-10.69 21.38-12.941 32.07-2.813 17.442 12.378 30.382 29.257 27.007 3.376-.563 6.189-1.688 9.565-3.376 1.688 6.189 4.501 11.815 6.752 18.004 3.938 9.002 8.44 17.442 10.127 27.007.563 2.251 0 9.002 0 12.941 0 0 0 0 0-.563-.564-1.124-1.126-2.249-2.251-3.375zm222.241 30.946c10.128 5.626 20.818 9.565 28.132 17.442-17.442 2.813-64.141-29.82-72.58-36.009-14.066-10.127-23.068-24.193-30.382-39.385 7.314-6.189 15.191-12.378 22.505-18.567 3.376 19.692 11.815 38.822 24.193 54.013 7.315 9.002 16.879 16.316 28.132 22.506zm9.565-93.961c3.938 7.877 7.877 15.754 14.066 21.943 11.815 10.69 29.82 16.316 43.886 23.068 8.44 3.938 16.316 8.44 24.756 12.378.563.563 8.44 4.501 8.44 3.938 0 1.125-10.69-.563-11.253-.563-15.191-2.251-30.945-7.314-45.574-13.503-26.444-11.253-50.075-29.257-68.642-50.637 7.877-5.064 16.316-9.565 24.193-14.629 3.939 6.752 7.315 12.941 10.128 18.005zm-79.894-153.6c-3.376-4.501-6.752-9.002-9.565-14.066 0-.563-.563-.563-.563-1.125-11.815-23.631-11.815-56.264-10.69-80.457 1.688-30.945 9.002-61.89 19.13-91.147 47.824 34.321 62.453 96.774 74.831 151.912 1.125 4.501 5.626 7.314 10.128 7.877 27.569 1.688 51.2 9.565 74.268 23.068-20.818 13.503-45.011 20.818-70.33 23.068-28.133 2.813-65.829 3.376-87.209-19.13z"/></g></g></g></svg>