<svg id="Capa_1" enable-background="new 0 0 511.245 511.245" height="512" viewBox="0 0 511.245 511.245" width="512" xmlns="http://www.w3.org/2000/svg"><g><g><g><path d="m511.234 216.59c0-13.503-5.064-27.007-15.754-34.884-10.128-7.314-20.255-8.44-30.945-6.752 0-.563 0-.563-.563-1.125-15.191-37.697-29.82-70.33-63.578-95.086-29.257-22.505-73.143-43.323-110.277-27.007-4.501 2.251-2.813 9.002 1.125 10.127 33.196 9.002 63.578 14.629 92.273 36.571 23.631 18.004 47.824 48.387 48.949 79.895.563 16.879 18.567 18.004 27.569 10.69 16.316 2.251 33.196 10.127 29.82 30.382-2.813 17.442-21.38 22.505-36.571 19.13-20.255-4.501-26.444 18.004-16.879 29.257v.563c3.376 100.149-97.336 156.976-187.358 149.099-25.319-2.251-46.699-10.128-66.954-25.881-17.442-14.066-32.07-21.943-54.013-25.319-21.38-3.376-40.51-14.066-50.075-34.321-10.127-21.943-.563-41.073 11.815-58.514 10.69-2.251 16.879-17.442 8.44-27.569-6.752-7.877-12.941-14.629-16.316-24.193-1.688-5.064-5.064-20.818.563-23.631 3.938-2.251 13.503 2.251 17.442 2.813 2.813.563 5.064.563 7.877 0 5.064 1.688 10.69-.563 12.941-6.752 3.376-10.69-.563-21.943-1.125-32.633-.563-11.815-.563-23.631 4.501-34.321 7.314-15.191 21.38-27.569 34.884-38.822 12.941 34.884 51.2 65.266 87.209 46.136 5.064-2.813 2.251-9.565-2.813-10.127-31.508-2.251-75.393-41.073-57.952-75.393 7.877-14.629 36.571-21.38 50.637-12.378 8.44 5.064 11.815 18.004 12.378 27.007 0 2.813.563 8.44-1.125 10.69-3.938 5.064-12.941.563-10.127-.563 15.191-6.752 2.251-28.695-12.941-21.943-18.567 8.44-19.692 34.321-4.501 46.699 13.503 10.69 35.446 8.44 47.262-3.938 14.066-14.066 11.253-37.697 5.064-54.576-7.314-20.818-23.631-33.196-45.011-34.884-41.635-3.938-75.956 24.756-71.455 65.829-21.38 6.189-39.947 25.319-50.637 43.323-6.752 11.815-9.002 25.881-9.565 39.385 0 5.064-.563 10.69 0 16.879-12.941-5.626-27.569-4.501-37.697 9.002-18.567 24.756-8.44 64.703 13.503 84.958-30.945 29.257-25.319 81.02 9.565 109.152 9.565 7.314 20.255 12.941 32.07 15.754 7.314 1.688 14.629 2.251 21.38 3.938-10.127 6.189-18.004 15.754-25.319 27.569-10.69 18.567-27.569 51.763-20.255 73.143 3.938 11.815 20.818 15.754 27.569 3.376 8.44-15.754 6.752-37.134 12.941-54.013 4.501-12.378 12.378-29.82 24.193-39.385 1.125 1.125 2.813 2.813 4.501 3.938 20.255 19.692 43.886 32.633 72.018 37.697 54.576 9.002 113.09-3.376 158.664-33.196 10.69 8.44 21.38 15.754 28.132 28.695 4.501 7.877 7.314 16.879 9.002 25.881 2.251 10.127.563 19.692 3.938 29.257 5.064 14.629 23.068 12.941 28.132 0 9.565-22.505-4.501-56.264-18.004-74.831-7.314-10.128-17.442-20.255-28.694-27.007 34.884-29.82 56.826-72.58 55.701-124.905 23.629-7.875 45.009-26.442 44.446-52.886z"/><path d="m205.16 331.93c-4.501 6.189 3.938 12.378 9.565 9.565 20.255-9.565 38.822-23.631 61.89-23.631 19.13 0 36.571 9.002 44.448 27.007 6.752 15.191 29.82 2.251 22.505-12.941-25.881-55.701-106.901-44.448-138.408 0z"/><path d="m331.19 258.787c.563 2.251 1.688 3.938 3.938 5.626 2.813 2.813 7.877 5.626 12.378 5.064 4.501 0 9.565-1.688 12.378-5.064 1.125-1.125 1.688-2.251 2.813-3.376 1.688-2.813 2.251-5.626 2.251-9.002 0-.563 0-1.125 0-2.251.563-4.501-2.251-9.565-5.064-12.941-3.376-3.376-8.44-5.626-12.941-5.064-4.501 0-9.565 1.688-12.941 5.064-2.813 3.376-5.626 7.877-5.064 12.941v2.251c.565 2.814 1.127 5.064 2.252 6.752z"/><path d="m172.527 271.165c-11.815 6.189 0 24.193 11.815 15.191 11.253-9.002 22.505-19.13 31.508-30.382 2.813-3.938 3.376-9.565-1.688-12.378-11.815-6.189-23.631-12.378-37.134-15.754-3.938-1.125-7.314 3.938-3.938 6.752 7.314 7.314 15.754 12.378 24.756 17.442-7.315 7.877-15.192 14.066-25.319 19.129z"/><path d="m36.931 327.429c-10.127 0-20.255 0-30.945 0-6.752 0-8.44 10.127-1.688 11.815 9.565 3.376 19.692 6.189 29.82 9.002 14.628 4.502 18.567-20.254 2.813-20.817z"/><path d="m45.371 364.001c-7.314 2.813-14.066 10.128-19.692 15.191-5.064 4.501-10.127 8.44-15.191 12.941-5.626 5.064 1.688 15.191 8.44 10.69 5.626-3.376 10.69-7.314 16.316-10.69 6.752-4.501 15.191-8.44 20.255-14.629 4.5-6.189-2.814-15.754-10.128-13.503z"/><path d="m61.687 392.132c-3.938 6.189-3.938 16.316-4.501 23.631-.563 6.189-1.125 11.815-1.688 18.004-.563 5.064 7.314 6.752 9.565 2.813 2.813-5.064 6.189-9.565 8.44-15.191 3.376-6.752 9.565-15.191 9.565-23.068-.001-12.378-15.192-15.191-21.381-6.189z"/><path d="m109.511 325.741c0 4.501 0 10.69 5.626 12.378 5.064 1.688 9.002-2.251 12.378-5.626 5.626-5.064 12.378-10.127 14.629-17.442 1.125-3.376-2.813-7.314-6.189-6.189-4.501 1.688-6.189 3.376-9.565 6.752-.563.563-3.376 2.813-5.626 5.064 0-1.125 0-2.813-.563-3.376 0-5.626-.563-11.815-.563-17.442 0-3.938-4.501-6.752-7.877-4.501-9.002 5.064-16.316 14.066-22.505 22.505-3.376 4.501 4.501 10.69 7.877 6.189 3.938-5.064 7.877-9.002 12.378-12.378z"/></g></g></g></svg>